<mxfile host="app.diagrams.net" agent="Mozilla/5.0 (Windows NT 10.0; Win64; x64) AppleWebKit/537.36 (KHTML, like Gecko) Chrome/132.0.0.0 Safari/537.36 OPR/117.0.0.0" version="26.2.9">
  <diagram name="Page-1" id="wQ4vOHXbquN5BVXKHxJk">
    <mxGraphModel dx="2488" dy="657" grid="1" gridSize="10" guides="1" tooltips="1" connect="1" arrows="1" fold="1" page="1" pageScale="1" pageWidth="827" pageHeight="1169" math="0" shadow="0">
      <root>
        <mxCell id="0" />
        <mxCell id="1" parent="0" />
        <mxCell id="jPekbBP5JHlAz6dA5dR3-6" value="" style="edgeStyle=orthogonalEdgeStyle;rounded=0;orthogonalLoop=1;jettySize=auto;html=1;" edge="1" parent="1" source="jPekbBP5JHlAz6dA5dR3-1" target="jPekbBP5JHlAz6dA5dR3-5">
          <mxGeometry relative="1" as="geometry" />
        </mxCell>
        <mxCell id="jPekbBP5JHlAz6dA5dR3-7" style="edgeStyle=orthogonalEdgeStyle;rounded=0;orthogonalLoop=1;jettySize=auto;html=1;exitX=0;exitY=0.5;exitDx=0;exitDy=0;entryX=0.5;entryY=0;entryDx=0;entryDy=0;" edge="1" parent="1" source="jPekbBP5JHlAz6dA5dR3-1" target="jPekbBP5JHlAz6dA5dR3-3">
          <mxGeometry relative="1" as="geometry" />
        </mxCell>
        <mxCell id="jPekbBP5JHlAz6dA5dR3-9" value="" style="edgeStyle=orthogonalEdgeStyle;rounded=0;orthogonalLoop=1;jettySize=auto;html=1;" edge="1" parent="1" source="jPekbBP5JHlAz6dA5dR3-1" target="jPekbBP5JHlAz6dA5dR3-8">
          <mxGeometry relative="1" as="geometry" />
        </mxCell>
        <mxCell id="jPekbBP5JHlAz6dA5dR3-1" value="Dynamic Difficulty Adjustment" style="rounded=0;whiteSpace=wrap;html=1;fillColor=#dae8fc;strokeColor=#6c8ebf;" vertex="1" parent="1">
          <mxGeometry x="360" y="20" width="120" height="60" as="geometry" />
        </mxCell>
        <mxCell id="jPekbBP5JHlAz6dA5dR3-43" style="edgeStyle=orthogonalEdgeStyle;rounded=0;orthogonalLoop=1;jettySize=auto;html=1;exitX=1;exitY=0.5;exitDx=0;exitDy=0;entryX=0.5;entryY=0;entryDx=0;entryDy=0;" edge="1" parent="1" source="jPekbBP5JHlAz6dA5dR3-3" target="jPekbBP5JHlAz6dA5dR3-41">
          <mxGeometry relative="1" as="geometry" />
        </mxCell>
        <mxCell id="jPekbBP5JHlAz6dA5dR3-56" style="edgeStyle=orthogonalEdgeStyle;rounded=0;orthogonalLoop=1;jettySize=auto;html=1;exitX=0.5;exitY=1;exitDx=0;exitDy=0;entryX=0.5;entryY=0;entryDx=0;entryDy=0;" edge="1" parent="1" source="jPekbBP5JHlAz6dA5dR3-3" target="jPekbBP5JHlAz6dA5dR3-32">
          <mxGeometry relative="1" as="geometry" />
        </mxCell>
        <mxCell id="jPekbBP5JHlAz6dA5dR3-57" style="edgeStyle=orthogonalEdgeStyle;rounded=0;orthogonalLoop=1;jettySize=auto;html=1;exitX=0;exitY=0.5;exitDx=0;exitDy=0;entryX=0.5;entryY=0;entryDx=0;entryDy=0;" edge="1" parent="1" source="jPekbBP5JHlAz6dA5dR3-3" target="jPekbBP5JHlAz6dA5dR3-26">
          <mxGeometry relative="1" as="geometry" />
        </mxCell>
        <mxCell id="jPekbBP5JHlAz6dA5dR3-3" value="Player Experience" style="rounded=0;whiteSpace=wrap;html=1;fillColor=#d5e8d4;strokeColor=#82b366;" vertex="1" parent="1">
          <mxGeometry x="70" y="110" width="120" height="60" as="geometry" />
        </mxCell>
        <mxCell id="jPekbBP5JHlAz6dA5dR3-24" style="edgeStyle=orthogonalEdgeStyle;rounded=0;orthogonalLoop=1;jettySize=auto;html=1;exitX=1;exitY=0.5;exitDx=0;exitDy=0;entryX=0.5;entryY=0;entryDx=0;entryDy=0;" edge="1" parent="1" source="jPekbBP5JHlAz6dA5dR3-5" target="jPekbBP5JHlAz6dA5dR3-23">
          <mxGeometry relative="1" as="geometry" />
        </mxCell>
        <mxCell id="jPekbBP5JHlAz6dA5dR3-44" style="edgeStyle=orthogonalEdgeStyle;rounded=0;orthogonalLoop=1;jettySize=auto;html=1;exitX=0;exitY=0.5;exitDx=0;exitDy=0;entryX=0.5;entryY=0;entryDx=0;entryDy=0;" edge="1" parent="1" source="jPekbBP5JHlAz6dA5dR3-5" target="jPekbBP5JHlAz6dA5dR3-41">
          <mxGeometry relative="1" as="geometry" />
        </mxCell>
        <mxCell id="jPekbBP5JHlAz6dA5dR3-5" value="Flow State" style="whiteSpace=wrap;html=1;rounded=0;fillColor=#d5e8d4;strokeColor=#82b366;" vertex="1" parent="1">
          <mxGeometry x="360" y="110" width="120" height="60" as="geometry" />
        </mxCell>
        <mxCell id="jPekbBP5JHlAz6dA5dR3-25" style="edgeStyle=orthogonalEdgeStyle;rounded=0;orthogonalLoop=1;jettySize=auto;html=1;exitX=0;exitY=0.5;exitDx=0;exitDy=0;" edge="1" parent="1" source="jPekbBP5JHlAz6dA5dR3-8">
          <mxGeometry relative="1" as="geometry">
            <mxPoint x="540" y="190" as="targetPoint" />
          </mxGeometry>
        </mxCell>
        <mxCell id="jPekbBP5JHlAz6dA5dR3-31" style="edgeStyle=orthogonalEdgeStyle;rounded=0;orthogonalLoop=1;jettySize=auto;html=1;exitX=1;exitY=0.5;exitDx=0;exitDy=0;entryX=0.5;entryY=0;entryDx=0;entryDy=0;" edge="1" parent="1" source="jPekbBP5JHlAz6dA5dR3-8" target="jPekbBP5JHlAz6dA5dR3-30">
          <mxGeometry relative="1" as="geometry" />
        </mxCell>
        <mxCell id="jPekbBP5JHlAz6dA5dR3-59" style="edgeStyle=orthogonalEdgeStyle;rounded=0;orthogonalLoop=1;jettySize=auto;html=1;exitX=0.5;exitY=1;exitDx=0;exitDy=0;entryX=0.5;entryY=0;entryDx=0;entryDy=0;" edge="1" parent="1" source="jPekbBP5JHlAz6dA5dR3-8" target="jPekbBP5JHlAz6dA5dR3-45">
          <mxGeometry relative="1" as="geometry" />
        </mxCell>
        <mxCell id="jPekbBP5JHlAz6dA5dR3-8" value="Engagement &amp;amp; Motivation" style="whiteSpace=wrap;html=1;rounded=0;fillColor=#d5e8d4;strokeColor=#82b366;" vertex="1" parent="1">
          <mxGeometry x="600" y="110" width="120" height="60" as="geometry" />
        </mxCell>
        <mxCell id="jPekbBP5JHlAz6dA5dR3-83" style="edgeStyle=orthogonalEdgeStyle;rounded=0;orthogonalLoop=1;jettySize=auto;html=1;entryX=0.5;entryY=0;entryDx=0;entryDy=0;dashed=1;" edge="1" parent="1" source="jPekbBP5JHlAz6dA5dR3-23" target="jPekbBP5JHlAz6dA5dR3-81">
          <mxGeometry relative="1" as="geometry" />
        </mxCell>
        <mxCell id="jPekbBP5JHlAz6dA5dR3-23" value="[6] M. Csikzentmihalyi supports psychological flow state theory" style="whiteSpace=wrap;html=1;fillColor=#e1d5e7;strokeColor=#9673a6;" vertex="1" parent="1">
          <mxGeometry x="480" y="190" width="120" height="60" as="geometry" />
        </mxCell>
        <mxCell id="jPekbBP5JHlAz6dA5dR3-35" style="edgeStyle=orthogonalEdgeStyle;rounded=0;orthogonalLoop=1;jettySize=auto;html=1;exitX=0.5;exitY=1;exitDx=0;exitDy=0;dashed=1;entryX=0.5;entryY=0;entryDx=0;entryDy=0;" edge="1" parent="1" source="jPekbBP5JHlAz6dA5dR3-26" target="jPekbBP5JHlAz6dA5dR3-36">
          <mxGeometry relative="1" as="geometry">
            <mxPoint x="-10" y="300" as="targetPoint" />
          </mxGeometry>
        </mxCell>
        <mxCell id="jPekbBP5JHlAz6dA5dR3-26" value="[1] M. Weber supports DDA via genetic algorithms" style="whiteSpace=wrap;html=1;fillColor=#e1d5e7;strokeColor=#9673a6;" vertex="1" parent="1">
          <mxGeometry x="-70" y="190" width="120" height="60" as="geometry" />
        </mxCell>
        <mxCell id="jPekbBP5JHlAz6dA5dR3-72" value="" style="edgeStyle=orthogonalEdgeStyle;rounded=0;orthogonalLoop=1;jettySize=auto;html=1;dashed=1;" edge="1" parent="1" source="jPekbBP5JHlAz6dA5dR3-30" target="jPekbBP5JHlAz6dA5dR3-71">
          <mxGeometry relative="1" as="geometry" />
        </mxCell>
        <mxCell id="jPekbBP5JHlAz6dA5dR3-30" value="[4] K. Welbers supports gamification for engagement" style="whiteSpace=wrap;html=1;fillColor=#e1d5e7;strokeColor=#9673a6;" vertex="1" parent="1">
          <mxGeometry x="730" y="190" width="120" height="60" as="geometry" />
        </mxCell>
        <mxCell id="jPekbBP5JHlAz6dA5dR3-55" style="edgeStyle=orthogonalEdgeStyle;rounded=0;orthogonalLoop=1;jettySize=auto;html=1;entryX=0;entryY=0.5;entryDx=0;entryDy=0;dashed=1;dashPattern=8 8;endArrow=none;startFill=0;" edge="1" parent="1" source="jPekbBP5JHlAz6dA5dR3-32" target="jPekbBP5JHlAz6dA5dR3-41">
          <mxGeometry relative="1" as="geometry" />
        </mxCell>
        <mxCell id="jPekbBP5JHlAz6dA5dR3-32" value="[15] N. Fisher extends DDA through emotional profiling" style="whiteSpace=wrap;html=1;fillColor=#e1d5e7;strokeColor=#9673a6;" vertex="1" parent="1">
          <mxGeometry x="70" y="190" width="120" height="60" as="geometry" />
        </mxCell>
        <mxCell id="jPekbBP5JHlAz6dA5dR3-36" value="[7] J. J. P. Arulraj and [14] Ang challenge static difficulty presets and support DDA" style="rounded=0;whiteSpace=wrap;html=1;fillColor=#e1d5e7;strokeColor=#9673a6;" vertex="1" parent="1">
          <mxGeometry x="-70" y="290" width="120" height="60" as="geometry" />
        </mxCell>
        <mxCell id="jPekbBP5JHlAz6dA5dR3-74" value="" style="edgeStyle=orthogonalEdgeStyle;rounded=0;orthogonalLoop=1;jettySize=auto;html=1;dashed=1;" edge="1" parent="1" source="jPekbBP5JHlAz6dA5dR3-41" target="jPekbBP5JHlAz6dA5dR3-73">
          <mxGeometry relative="1" as="geometry" />
        </mxCell>
        <mxCell id="jPekbBP5JHlAz6dA5dR3-41" value="[2] J. Knorr supports performance-based DDA" style="whiteSpace=wrap;html=1;fillColor=#e1d5e7;strokeColor=#9673a6;" vertex="1" parent="1">
          <mxGeometry x="230" y="190" width="120" height="60" as="geometry" />
        </mxCell>
        <mxCell id="jPekbBP5JHlAz6dA5dR3-49" value="" style="edgeStyle=orthogonalEdgeStyle;rounded=0;orthogonalLoop=1;jettySize=auto;html=1;" edge="1" parent="1" source="jPekbBP5JHlAz6dA5dR3-45" target="jPekbBP5JHlAz6dA5dR3-48">
          <mxGeometry relative="1" as="geometry" />
        </mxCell>
        <mxCell id="jPekbBP5JHlAz6dA5dR3-52" style="edgeStyle=orthogonalEdgeStyle;rounded=0;orthogonalLoop=1;jettySize=auto;html=1;entryX=0.5;entryY=0;entryDx=0;entryDy=0;" edge="1" parent="1" source="jPekbBP5JHlAz6dA5dR3-45" target="jPekbBP5JHlAz6dA5dR3-51">
          <mxGeometry relative="1" as="geometry" />
        </mxCell>
        <mxCell id="jPekbBP5JHlAz6dA5dR3-54" style="edgeStyle=orthogonalEdgeStyle;rounded=0;orthogonalLoop=1;jettySize=auto;html=1;entryX=1;entryY=0.5;entryDx=0;entryDy=0;endArrow=none;startFill=0;dashed=1;dashPattern=8 8;" edge="1" parent="1" source="jPekbBP5JHlAz6dA5dR3-45" target="jPekbBP5JHlAz6dA5dR3-53">
          <mxGeometry relative="1" as="geometry" />
        </mxCell>
        <mxCell id="jPekbBP5JHlAz6dA5dR3-45" value="Supports Intrinsic Motivation" style="whiteSpace=wrap;html=1;fillColor=#d5e8d4;strokeColor=#82b366;" vertex="1" parent="1">
          <mxGeometry x="600" y="400" width="120" height="60" as="geometry" />
        </mxCell>
        <mxCell id="jPekbBP5JHlAz6dA5dR3-48" value="[10] G. Reid supports intrinsic motivation" style="whiteSpace=wrap;html=1;fillColor=#e1d5e7;strokeColor=#9673a6;" vertex="1" parent="1">
          <mxGeometry x="530" y="500" width="120" height="60" as="geometry" />
        </mxCell>
        <mxCell id="jPekbBP5JHlAz6dA5dR3-87" style="edgeStyle=orthogonalEdgeStyle;rounded=0;orthogonalLoop=1;jettySize=auto;html=1;exitX=0.5;exitY=1;exitDx=0;exitDy=0;entryX=0.5;entryY=0;entryDx=0;entryDy=0;dashed=1;" edge="1" parent="1" source="jPekbBP5JHlAz6dA5dR3-51" target="jPekbBP5JHlAz6dA5dR3-85">
          <mxGeometry relative="1" as="geometry" />
        </mxCell>
        <mxCell id="jPekbBP5JHlAz6dA5dR3-51" value="[11] C. Burgers supports feedback boosting motivation" style="whiteSpace=wrap;html=1;fillColor=#e1d5e7;strokeColor=#9673a6;" vertex="1" parent="1">
          <mxGeometry x="670" y="500" width="120" height="60" as="geometry" />
        </mxCell>
        <mxCell id="jPekbBP5JHlAz6dA5dR3-64" value="" style="edgeStyle=orthogonalEdgeStyle;rounded=0;orthogonalLoop=1;jettySize=auto;html=1;" edge="1" parent="1" source="jPekbBP5JHlAz6dA5dR3-53" target="jPekbBP5JHlAz6dA5dR3-63">
          <mxGeometry relative="1" as="geometry" />
        </mxCell>
        <mxCell id="jPekbBP5JHlAz6dA5dR3-53" value="Adaptation" style="whiteSpace=wrap;html=1;fillColor=#d5e8d4;strokeColor=#82b366;" vertex="1" parent="1">
          <mxGeometry x="380" y="400" width="120" height="60" as="geometry" />
        </mxCell>
        <mxCell id="jPekbBP5JHlAz6dA5dR3-69" style="edgeStyle=orthogonalEdgeStyle;rounded=0;orthogonalLoop=1;jettySize=auto;html=1;exitX=0.5;exitY=1;exitDx=0;exitDy=0;entryX=0.5;entryY=0;entryDx=0;entryDy=0;dashed=1;" edge="1" parent="1" source="jPekbBP5JHlAz6dA5dR3-63" target="jPekbBP5JHlAz6dA5dR3-67">
          <mxGeometry relative="1" as="geometry" />
        </mxCell>
        <mxCell id="jPekbBP5JHlAz6dA5dR3-63" value="[8] G. Andrade supports DDA based balancing" style="whiteSpace=wrap;html=1;fillColor=#e1d5e7;strokeColor=#9673a6;" vertex="1" parent="1">
          <mxGeometry x="380" y="500" width="120" height="60" as="geometry" />
        </mxCell>
        <mxCell id="jPekbBP5JHlAz6dA5dR3-67" value="[13] M. Zohaib supports masking DDA through design" style="whiteSpace=wrap;html=1;fillColor=#e1d5e7;strokeColor=#9673a6;" vertex="1" parent="1">
          <mxGeometry x="380" y="590" width="120" height="60" as="geometry" />
        </mxCell>
        <mxCell id="jPekbBP5JHlAz6dA5dR3-71" value="[3] Z. Yu supports engagement for user retention" style="whiteSpace=wrap;html=1;fillColor=#e1d5e7;strokeColor=#9673a6;" vertex="1" parent="1">
          <mxGeometry x="730" y="290" width="120" height="60" as="geometry" />
        </mxCell>
        <mxCell id="jPekbBP5JHlAz6dA5dR3-93" style="edgeStyle=orthogonalEdgeStyle;rounded=0;orthogonalLoop=1;jettySize=auto;html=1;entryX=1;entryY=0.5;entryDx=0;entryDy=0;dashed=1;endArrow=none;startFill=0;dashPattern=8 8;" edge="1" parent="1" source="jPekbBP5JHlAz6dA5dR3-73" target="jPekbBP5JHlAz6dA5dR3-91">
          <mxGeometry relative="1" as="geometry" />
        </mxCell>
        <mxCell id="jPekbBP5JHlAz6dA5dR3-95" style="edgeStyle=orthogonalEdgeStyle;rounded=0;orthogonalLoop=1;jettySize=auto;html=1;exitX=0;exitY=0.5;exitDx=0;exitDy=0;entryX=0.5;entryY=0;entryDx=0;entryDy=0;dashed=1;" edge="1" parent="1" source="jPekbBP5JHlAz6dA5dR3-73" target="jPekbBP5JHlAz6dA5dR3-89">
          <mxGeometry relative="1" as="geometry" />
        </mxCell>
        <mxCell id="jPekbBP5JHlAz6dA5dR3-73" value="[5] J. Wiemeyer supports pushing players to a higher skill level" style="whiteSpace=wrap;html=1;fillColor=#e1d5e7;strokeColor=#9673a6;" vertex="1" parent="1">
          <mxGeometry x="230" y="290" width="120" height="60" as="geometry" />
        </mxCell>
        <mxCell id="jPekbBP5JHlAz6dA5dR3-81" value="[9] A. Becker supports the flow state keeping people engaged" style="whiteSpace=wrap;html=1;fillColor=#e1d5e7;strokeColor=#9673a6;rounded=0;" vertex="1" parent="1">
          <mxGeometry x="480" y="290" width="120" height="60" as="geometry" />
        </mxCell>
        <mxCell id="jPekbBP5JHlAz6dA5dR3-85" value="[12] A. alam supports feedback leading to a more engaging experience" style="whiteSpace=wrap;html=1;fillColor=#e1d5e7;strokeColor=#9673a6;" vertex="1" parent="1">
          <mxGeometry x="670" y="590" width="120" height="60" as="geometry" />
        </mxCell>
        <mxCell id="jPekbBP5JHlAz6dA5dR3-89" value="[16] J. Hagelback supports giving challenging experiences to overcome" style="whiteSpace=wrap;html=1;fillColor=#e1d5e7;strokeColor=#9673a6;" vertex="1" parent="1">
          <mxGeometry x="150" y="380" width="120" height="70" as="geometry" />
        </mxCell>
        <mxCell id="jPekbBP5JHlAz6dA5dR3-91" value="[17] A. Schutt supports DDA for raising the player skill level" style="whiteSpace=wrap;html=1;fillColor=#e1d5e7;strokeColor=#9673a6;" vertex="1" parent="1">
          <mxGeometry x="70" y="290" width="120" height="60" as="geometry" />
        </mxCell>
      </root>
    </mxGraphModel>
  </diagram>
</mxfile>
